<svg width="925" height="268" viewBox="0 0 925 268" fill="none" xmlns="http://www.w3.org/2000/svg">
<path fill-rule="evenodd" clip-rule="evenodd" d="M27.1561 241.202H162.934V26.8007H27.1561V241.202ZM0 268H190.088V0H0V268Z" fill="#FFCC00"/>
<path fill-rule="evenodd" clip-rule="evenodd" d="M315.992 120.222H304.244C288.852 98.769 273.588 77.4468 258.331 53.3266H258.198V120.222H245.235V26.9447H256.982C272.378 48.2625 287.635 69.4496 302.758 93.4324H303.027V26.9447H315.992V120.222Z" fill="white"/>
<path fill-rule="evenodd" clip-rule="evenodd" d="M352.989 26.9447L320.309 120.222H334.356L342.589 94.7704H371.081L378.506 120.222H396.605L366.491 26.9447H352.989ZM346.778 83.3107C350.556 71.0535 354.336 59.7244 357.714 45.3206H357.986C361.763 59.7244 365.142 71.0535 368.652 83.3107H346.778Z" fill="white"/>
<path fill-rule="evenodd" clip-rule="evenodd" d="M411.86 120.222V39.4567H387.014V26.9447H452.911V39.4567H428.06V120.222H411.86Z" fill="white"/>
<path fill-rule="evenodd" clip-rule="evenodd" d="M458.177 120.222H474.242V26.9447H458.177V120.222Z" fill="white"/>
<path fill-rule="evenodd" clip-rule="evenodd" d="M524.208 121.819C548.92 121.819 564.314 100.103 564.314 72.2541C564.314 46.1225 547.295 25.3386 524.208 25.3386C501.115 25.3386 484.103 46.1225 484.103 72.2541C484.103 100.103 499.49 121.819 524.208 121.819ZM524.208 108.501C507.326 108.501 501.387 90.1028 501.387 72.2541C501.387 55.0612 508.141 38.6614 524.208 38.6614C540.276 38.6614 547.023 55.0612 547.023 72.2541C547.023 90.1028 541.086 108.501 524.208 108.501Z" fill="white"/>
<path fill-rule="evenodd" clip-rule="evenodd" d="M644.92 120.222H633.174C617.787 98.769 602.518 77.4468 587.266 53.3266H587.122V120.222H574.166V26.9447H585.919C601.311 48.2625 616.57 69.4496 631.692 93.4324H631.964V26.9447H644.92V120.222Z" fill="white"/>
<path fill-rule="evenodd" clip-rule="evenodd" d="M681.917 26.9447L649.235 120.222H663.286L671.526 94.7704H700.014L707.441 120.222H725.536L695.423 26.9447H681.917ZM675.706 83.3107C679.491 71.0535 683.273 59.7244 686.651 45.3206H686.916C690.701 59.7244 694.077 71.0535 697.583 83.3107H675.706Z" fill="white"/>
<path fill-rule="evenodd" clip-rule="evenodd" d="M730.263 26.9447H746.33V107.697H778.333V120.222H730.263V26.9447Z" fill="white"/>
<path fill-rule="evenodd" clip-rule="evenodd" d="M306.019 198.262V236.775C297.377 240.112 288.333 242.504 279.148 242.504C251.332 242.504 233.776 221.193 233.776 193.728C233.776 168.283 251.332 146.026 279.689 146.026C288.463 146.026 297.24 149.227 302.643 153.221L297.377 164.284C293.052 161.619 286.302 159.355 280.095 159.355C262.807 159.355 251.058 172.818 251.058 193.996C251.058 216.122 264.567 229.186 278.472 229.186C282.796 229.186 286.441 228.65 289.817 226.926V198.262H306.019Z" fill="white"/>
<path fill-rule="evenodd" clip-rule="evenodd" d="M363.945 160.162H336.939V185.742H363.406V198.262H336.939V228.382H368.812V240.916H320.737V147.621H363.945V160.162Z" fill="white"/>
<path fill-rule="evenodd" clip-rule="evenodd" d="M413.907 242.504C438.621 242.504 454.011 220.783 454.011 192.937C454.011 166.816 436.998 146.026 413.907 146.026C390.816 146.026 373.804 166.816 373.804 192.937C373.804 220.783 389.198 242.504 413.907 242.504ZM413.907 229.186C397.027 229.186 391.088 210.801 391.088 192.937C391.088 175.751 397.84 159.355 413.907 159.355C429.979 159.355 436.729 175.751 436.729 192.937C436.729 210.801 430.787 229.186 413.907 229.186Z" fill="white"/>
<path fill-rule="evenodd" clip-rule="evenodd" d="M531.789 198.262V236.775C523.147 240.112 514.105 242.504 504.918 242.504C477.104 242.504 459.546 221.193 459.546 193.728C459.546 168.283 477.104 146.026 505.463 146.026C514.235 146.026 523.012 149.227 528.413 153.221L523.147 164.284C518.828 161.619 512.074 159.355 505.863 159.355C488.579 159.355 476.832 172.818 476.832 193.996C476.832 216.122 490.338 229.186 504.246 229.186C508.565 229.186 512.215 228.65 515.591 226.926V198.262H531.789Z" fill="white"/>
<path fill-rule="evenodd" clip-rule="evenodd" d="M603.89 240.916L584.859 202.266C595.259 196.805 601.199 185.742 601.199 174.552C601.199 156.418 589.989 147.621 571.894 147.621H546.642V240.916H562.846V205.73H570.137L585.396 240.916H603.89ZM562.846 160.162H570.007C579.594 160.162 584.987 165.62 584.987 175.215C584.987 187.735 577.297 193.333 569.593 193.728C567.975 193.87 564.2 193.996 562.846 194.14V160.162Z" fill="white"/>
<path fill-rule="evenodd" clip-rule="evenodd" d="M636.842 147.621L604.168 240.916H618.211L626.447 215.462H654.941L662.368 240.916H680.46L650.348 147.621H636.842ZM630.631 203.996C634.411 191.738 638.193 180.409 641.569 166.023H641.834C645.621 180.409 648.997 191.738 652.51 203.996H630.631Z" fill="white"/>
<path fill-rule="evenodd" clip-rule="evenodd" d="M708.548 193.728C706.885 193.858 702.925 193.982 701.794 194.113V160.162H709.084C718.541 160.162 723.937 165.62 723.937 175.215C723.937 187.735 716.238 193.333 708.548 193.728ZM710.838 147.621H685.592V240.916H701.794V205.73H709.084C728.4 205.73 740.146 190.265 740.146 174.552C740.146 156.418 728.93 147.621 710.838 147.621Z" fill="white"/>
<path fill-rule="evenodd" clip-rule="evenodd" d="M815.224 240.916H799.013V195.998H765.388V240.916H749.32V147.621H765.388V183.478H799.013V147.891H815.224V240.916Z" fill="white"/>
<path fill-rule="evenodd" clip-rule="evenodd" d="M830.748 240.914H846.818V147.621H830.748V240.914Z" fill="white"/>
<path fill-rule="evenodd" clip-rule="evenodd" d="M919.732 164.548C915.812 162.146 909.336 159.355 903.121 159.355C886.652 159.355 874.632 172.818 874.632 193.996C874.632 216.122 887.868 229.186 903.527 229.186C909.745 229.186 915.548 227.183 919.732 224.516L924.194 236.117C919.33 239.445 910.69 242.504 902.856 242.504C875.033 242.504 857.484 221.193 857.484 193.728C857.484 168.283 874.903 146.026 903.121 146.026C911.489 146.026 919.33 149.495 924.867 153.221L919.732 164.548Z" fill="white"/>
</svg>
